<svg xmlns="http://www.w3.org/2000/svg"
     viewBox="0 0 560 590"
     font-family="'Helvetica Neue', Arial, Helvetica, sans-serif">
<rect width="560" height="590" fill="#FFFFFF"/>
<defs>
    <marker id="arrowMain" viewBox="0 0 10 10" refX="9" refY="5"
            markerWidth="6" markerHeight="6" orient="auto-start-reverse">
      <path d="M 0 0 L 10 5 L 0 10 z" fill="#555555"/>
    </marker>
    <marker id="arrowOut" viewBox="0 0 10 10" refX="9" refY="5"
            markerWidth="6" markerHeight="6" orient="auto-start-reverse">
      <path d="M 0 0 L 10 5 L 0 10 z" fill="#555555"/>
    </marker>
    <marker id="arrowFb" viewBox="0 0 10 10" refX="9" refY="5"
            markerWidth="6" markerHeight="6" orient="auto-start-reverse">
      <path d="M 0 0 L 10 5 L 0 10 z" fill="#3D8B3D"/>
    </marker>
    <filter id="softShadow" x="-20%" y="-20%" width="140%" height="140%">
      <feGaussianBlur in="SourceAlpha" stdDeviation="2"/>
      <feOffset dx="0" dy="2" result="offsetblur"/>
      <feComponentTransfer>
        <feFuncA type="linear" slope="0.25"/>
      </feComponentTransfer>
      <feMerge>
        <feMergeNode/>
        <feMergeNode in="SourceGraphic"/>
      </feMerge>
    </filter>
  </defs>


<rect x="138" y="20" width="284" height="48" rx="10" ry="10"
        fill="#E8F5E8" stroke="#3D8B3D" stroke-width="2"
        filter="url(#softShadow)"/>
  <text x="280" y="50" text-anchor="middle"
        font-size="14" font-weight="bold" fill="#222222">
    Desired Hamiltonian Input
  </text>

<line x1="280" y1="72" x2="280" y2="92"
        stroke="#555555" stroke-width="2.5"
        marker-end="url(#arrowOut)"/>

<rect x="64" y="88" width="432" height="410" rx="16" ry="16"
        fill="#E8F5E8" stroke="#3D8B3D" stroke-width="2.5"
        stroke-dasharray="8,4"
        filter="url(#softShadow)"/>
<text x="480" y="116" text-anchor="end"
        font-size="13" font-style="italic" font-weight="bold"
        fill="#2E6B2E">Training</text>

<rect x="210" y="106" width="140" height="54" rx="10" ry="10"
        fill="#3D8B3D" stroke="#2E6B2E" stroke-width="2"/>
  <text x="280" y="129" text-anchor="middle"
        font-size="14" font-weight="bold" fill="#FFFFFF">Inverse</text>
  <text x="280" y="148" text-anchor="middle"
        font-size="14" font-weight="bold" fill="#FFFFFF">MLP</text>

<line x1="280" y1="164" x2="280" y2="184"
        stroke="#555555" stroke-width="2.5"
        marker-end="url(#arrowMain)"/>

<rect x="122" y="188" width="316" height="46" rx="10" ry="10"
        fill="#E8E8E8" stroke="#999999" stroke-width="2"/>
  <text x="280" y="216" text-anchor="middle"
        font-size="14" font-weight="bold" fill="#333333">
    Best Quantum Metal Parameter Guess
  </text>

<line x1="280" y1="238" x2="280" y2="258"
        stroke="#555555" stroke-width="2.5"
        marker-end="url(#arrowMain)"/>

<rect x="172" y="262" width="216" height="58" rx="10" ry="10"
        fill="#FFF4E6" stroke="#E87A00" stroke-width="2"/>
  <text x="280" y="285" text-anchor="middle"
        font-size="14" font-weight="bold" fill="#333333">Ansys Surrogate</text>
  <text x="280" y="304" text-anchor="middle"
        font-size="14" font-weight="bold" fill="#333333">MLP</text>

<line x1="280" y1="324" x2="280" y2="344"
        stroke="#555555" stroke-width="2.5"
        marker-end="url(#arrowMain)"/>

<rect x="172" y="348" width="216" height="58" rx="10" ry="10"
        fill="#E8E4F0" stroke="#7B68AE" stroke-width="2"/>
  <text x="280" y="371" text-anchor="middle"
        font-size="14" font-weight="bold" fill="#333333">Hamiltonian</text>
  <text x="280" y="390" text-anchor="middle"
        font-size="14" font-weight="bold" fill="#333333">Reconstruction</text>

<text x="92" y="440" text-anchor="start"
        font-size="12" fill="#333333">
    Loss = MAE(<tspan font-weight="bold" fill="#E87A00">Hamiltonian Input</tspan>, <tspan font-weight="bold" fill="#7B68AE">Hamiltonian Reconstructed</tspan>)
  </text>

<path d="M 172,377 L 104,377 L 104,133 L 210,133"
        fill="none" stroke="#3D8B3D" stroke-width="2.5"
        stroke-dasharray="6,4" marker-end="url(#arrowFb)"/>
  <text x="96" y="255" text-anchor="middle"
        font-size="12" font-style="italic" fill="#3D8B3D"
        transform="rotate(-90 96 255)">
    backprop / update
  </text>

<line x1="280" y1="502" x2="280" y2="522"
        stroke="#555555" stroke-width="2.5"
        marker-end="url(#arrowOut)"/>

<rect x="120" y="526" width="320" height="46" rx="10" ry="10"
        fill="#E8F5E8" stroke="#3D8B3D" stroke-width="2"
        filter="url(#softShadow)"/>
  <text x="280" y="555" text-anchor="middle"
        font-size="14" font-weight="bold" fill="#222222">
    Best Quantum Metal Design Output
  </text>

</svg>
