<svg xmlns="http://www.w3.org/2000/svg"
     viewBox="0 0 560 760"
     font-family="'Helvetica Neue', Arial, Helvetica, sans-serif">
<rect width="560" height="760" fill="#FFFFFF"/>
<defs>
    <marker id="arrowMain" viewBox="0 0 10 10" refX="9" refY="5"
            markerWidth="6" markerHeight="6" orient="auto-start-reverse">
      <path d="M 0 0 L 10 5 L 0 10 z" fill="#555555"/>
    </marker>
    <marker id="arrowOut" viewBox="0 0 10 10" refX="9" refY="5"
            markerWidth="6" markerHeight="6" orient="auto-start-reverse">
      <path d="M 0 0 L 10 5 L 0 10 z" fill="#555555"/>
    </marker>
    <marker id="arrowFb" viewBox="0 0 10 10" refX="9" refY="5"
            markerWidth="6" markerHeight="6" orient="auto-start-reverse">
      <path d="M 0 0 L 10 5 L 0 10 z" fill="#3D8B3D"/>
    </marker>
    <filter id="softShadow" x="-20%" y="-20%" width="140%" height="140%">
      <feGaussianBlur in="SourceAlpha" stdDeviation="2"/>
      <feOffset dx="0" dy="2" result="offsetblur"/>
      <feComponentTransfer>
        <feFuncA type="linear" slope="0.25"/>
      </feComponentTransfer>
      <feMerge>
        <feMergeNode/>
        <feMergeNode in="SourceGraphic"/>
      </feMerge>
    </filter>
  </defs>


<rect x="140" y="24" width="280" height="52" rx="10" ry="10"
        fill="#E8F5E8" stroke="#3D8B3D" stroke-width="2"
        filter="url(#softShadow)"/>
  <text x="280" y="56" text-anchor="middle"
        font-size="14" font-weight="bold" fill="#222222">
    Desired Hamiltonian Input
  </text>
<line x1="280" y1="80" x2="280" y2="112"
        stroke="#555555" stroke-width="2.5"
        marker-end="url(#arrowOut)"/>


<rect x="60" y="116" width="440" height="520" rx="18" ry="18"
        fill="#E8F5E8" stroke="#3D8B3D" stroke-width="2.5"
        stroke-dasharray="8,4"
        filter="url(#softShadow)"/>
<text x="480" y="146" text-anchor="end"
        font-size="13" font-style="italic" font-weight="bold"
        fill="#2E6B2E">Training</text>
<rect x="210" y="150" width="140" height="60" rx="10" ry="10"
        fill="#3D8B3D" stroke="#2E6B2E" stroke-width="2"/>
  <text x="280" y="176" text-anchor="middle"
        font-size="14" font-weight="bold" fill="#FFFFFF">Inverse</text>
  <text x="280" y="196" text-anchor="middle"
        font-size="14" font-weight="bold" fill="#FFFFFF">MLP</text>
<line x1="280" y1="212" x2="280" y2="244"
        stroke="#555555" stroke-width="2.5"
        marker-end="url(#arrowMain)"/>
<rect x="120" y="248" width="320" height="52" rx="10" ry="10"
        fill="#E8E8E8" stroke="#999999" stroke-width="2"/>
  <text x="280" y="280" text-anchor="middle"
        font-size="14" font-weight="bold" fill="#333333">
    Best Quantum Metal Parameter guess
  </text>
<line x1="280" y1="302" x2="280" y2="334"
        stroke="#555555" stroke-width="2.5"
        marker-end="url(#arrowMain)"/>
<rect x="170" y="338" width="220" height="68" rx="10" ry="10"
        fill="#FFF4E6" stroke="#E87A00" stroke-width="2"/>
  <text x="280" y="365" text-anchor="middle"
        font-size="14" font-weight="bold" fill="#333333">Ansys Surrogate</text>
  <text x="280" y="388" text-anchor="middle"
        font-size="14" font-weight="bold" fill="#333333">MLP</text>
<line x1="280" y1="408" x2="280" y2="440"
        stroke="#555555" stroke-width="2.5"
        marker-end="url(#arrowMain)"/>
<rect x="170" y="444" width="220" height="68" rx="10" ry="10"
        fill="#E8E4F0" stroke="#7B68AE" stroke-width="2"/>
  <text x="280" y="471" text-anchor="middle"
        font-size="14" font-weight="bold" fill="#333333">Hamiltonian</text>
  <text x="280" y="494" text-anchor="middle"
        font-size="14" font-weight="bold" fill="#333333">Reconstruction</text>
<text x="100" y="548" text-anchor="start"
        font-size="12" fill="#333333">
    Loss = MAE(<tspan font-weight="bold" fill="#E87A00">Hamiltonian Input</tspan>, <tspan font-weight="bold" fill="#7B68AE">Hamiltonian</tspan>
  </text>
  <text x="100" y="568" text-anchor="start"
        font-size="12" font-weight="bold" fill="#7B68AE">
    Reconstructed<tspan font-weight="normal" fill="#333333"> )</tspan>
  </text>

<path d="M 170,478 L 110,478 L 110,180 L 210,180"
        fill="none" stroke="#3D8B3D" stroke-width="2.5"
        stroke-dasharray="6,4" marker-end="url(#arrowFb)"/>
  <text x="102" y="330" text-anchor="end"
        font-size="12" font-style="italic" fill="#3D8B3D"
        transform="rotate(-90 102 330)">
    backprop / update
  </text>



<line x1="280" y1="640" x2="280" y2="672"
        stroke="#555555" stroke-width="2.5"
        marker-end="url(#arrowOut)"/>

  <rect x="120" y="676" width="320" height="52" rx="10" ry="10"
        fill="#E8F5E8" stroke="#3D8B3D" stroke-width="2"
        filter="url(#softShadow)"/>
  <text x="280" y="708" text-anchor="middle"
        font-size="14" font-weight="bold" fill="#222222">
    Best Quantum Metal Design Output
  </text>

</svg>
